<?xml version="1.0" encoding="utf-8"?>
<!-- Generator: Adobe Illustrator 23.0.3, SVG Export Plug-In . SVG Version: 6.00 Build 0)  -->
<svg version="1.1" id="Layer_1" xmlns="http://www.w3.org/2000/svg" xmlns:xlink="http://www.w3.org/1999/xlink" x="0px" y="0px"
	 viewBox="0 0 595.28 595.28" style="enable-background:new 0 0 595.28 595.28;" xml:space="preserve">
<style type="text/css">
	.st0{fill:#8DBC4A;}
	.st1{fill:#B7775C;}
	.st2{fill:#8FC73E;}
	.st3{fill:#9F6038;}
	.st4{fill:#C88C5A;}
	.st5{fill:#43AC63;}
	.st6{fill:#DE8B69;}
	.st7{fill:#A7744B;}
	.st8{fill:#86B740;}
	.st9{fill:#EDAD1D;}
	.st10{fill:#AE5E39;}
	.st11{fill:#C56B46;}
	.st12{fill:#482D20;}
	.st13{fill:#FFFFFF;}
	.st14{fill:#FEC00F;}
</style>
<g>
	<path class="st8" d="M113.7,230.21l-39.44,24.03l4.17,16.8l37.68-37.68c2.13,2.13,4.85,3.64,7.87,4.37l-10.9,44.87l14.83,8.93
		v-53.29c3.18,0,6.12-0.94,8.65-2.48l24.03,39.44l16.8-4.17l-37.68-37.68c2.13-2.13,3.64-4.85,4.37-7.87l44.87,10.9l6.72-11.16h14.9
		l7.45,15.03h35.2l-9.26-18.69l9.26-18.69h-35.2l-7.45,15.03h-66.41c-0.4-1.8-1.12-3.46-2.05-4.99l39.44-24.03l-4.17-16.8
		l-37.68,37.68c-2.13-2.13-4.85-3.64-7.87-4.37l10.9-44.87l-14.83-8.93v53.29c-3.18,0-6.12,0.94-8.65,2.48l-24.03-39.44l-16.8,4.17
		l37.68,37.68c-2.13,2.13-3.64,4.85-4.37,7.87l-44.87-10.9l-8.93,14.82h53.29C111.21,224.73,112.15,227.68,113.7,230.21z
		 M127.9,210.51c6.1,0,11.04,4.94,11.04,11.04c0,6.1-4.94,11.04-11.04,11.04c-6.1,0-11.04-4.94-11.04-11.04
		C116.86,215.45,121.8,210.51,127.9,210.51z"/>
	<path class="st9" d="M460.99,191.19c-15.07,0-27.29-12.22-27.29-27.29s12.22-27.29,27.29-27.29s27.29,12.22,27.29,27.29
		S476.06,191.19,460.99,191.19z M464.77,128.83l1.5-10.52H455.7l1.5,10.52H464.77z M445.91,130.22l-5.3-11.78l-8.8,5.08l7.55,10.48
		L445.91,130.22z M431.09,142.27l-6.93-5.74l-5.29,9.16l8.44,3.13L431.09,142.27z M426.7,160.12l-11.3-1.24v10.05l11.3-1.24V160.12z
		 M418.87,182.11l5.3,9.17l10.04-7.54l-3.78-6.55L418.87,182.11z M445.91,197.59l-6.55-3.78l-5.72,6.94l9.12,5.26L445.91,197.59z
		 M455.1,209.49h11.77l-2.1-10.82h-7.57L455.1,209.49z M488.57,200.61l-5.95-6.81l-6.55,3.78l2.92,8.56L488.57,200.61z
		 M491.14,185.11l8.23,8.14l6.23-10.78l-11.16-3.06L491.14,185.11z M506.58,159.72l-11.35,1.27v5.81l11.35,1.27V159.72z
		 M505.58,145.33l-6.21-10.75l-8.48,7.7l3.78,6.55L505.58,145.33z M490.34,123.62l-9.14-5.28l-5.13,11.88l6.55,3.78L490.34,123.62z"
		/>
	<path class="st7" d="M283.04,303.9h84.42l-42.21,28.13L283.04,303.9z M283.04,360.17l36.37-24.25l-36.37-24.25V360.17z
		 M336.74,255.98h-22.98v18.91h22.98V255.98z M573.86,357.03c-3.1,4.14-6.38,8.19-9.79,12.17c-82.98-12.99-170.49-8.46-256.8,15.63
		c-51.98,14.45-103.45,36.23-152.6,65.07c-24.39-9.65-46.86-21.63-66.89-35.56c17.27,2.58,34.46,5.98,51.52,10.19
		c8.58-4.67,17.23-9.09,25.92-13.35c-33.71-8.39-67.77-13.61-101.82-15.82c-6.57-5.71-12.77-11.66-18.58-17.83
		c50.75-0.43,102.19,5.6,153.08,18.69c10.64-4.52,21.33-8.76,32.06-12.68c-66.11-17.86-132.84-24.4-197.66-20.31
		c-3.87-4.82-7.47-9.77-10.87-14.81c37.65-4.41,76.19-5.34,115.17-2.58l5.8-28.96c0-0.03-0.02-0.06-0.02-0.09
		c-0.01-0.4,0.16-0.75,0.27-1.13l7.55-37.68c0,0,0,0,0-0.01l1.46-7.29l6.43,10.56l5.36-1.33l15.42,10.29l20.01-13.32l-7.03-35.09
		l6.38-10.59l25.43,126.9c7.4,1.57,14.79,3.12,22.19,4.97c1.29,0.32,2.57,0.73,3.86,1.05v-96.16l34.61-29.37l40.94-18.05l1.04,0.46
		h66.12c0.7,0,1.39,0.15,2.03,0.43l38.92,17.16c0.45,0.2,0.86,0.47,1.24,0.78l31.61,27.08c1.11,0.95,1.76,2.34,1.76,3.81v74.25
		c11.42,0.34,22.78,0.94,34.07,1.91c1-4.02,1.63-8.7,1.18-13.9l0.33-0.35c-2.63,2.18-5.97,3.54-9.65,3.54
		c-8.4,0-15.21-6.8-15.21-15.2c0-2.39,0.55-4.65,1.53-6.65c-2.45-2.04-4.01-5.11-4.01-8.54c0-5.34,3.78-9.81,8.81-10.87
		c-0.35-1.08-0.55-2.24-0.55-3.44c0-5.39,3.85-9.89,8.96-10.9c-1.22-2.19-1.92-4.71-1.92-7.39c0-2.39,0.55-4.64,1.53-6.65
		c-0.16-0.74-0.24-1.52-0.24-2.31c0-3.34,1.47-6.33,3.8-8.37c-0.65-1.41-1.01-2.97-1.01-4.63c0-6.14,4.98-11.11,11.12-11.11
		c5.98,0,10.85,4.71,11.11,10.62c4.8,1.24,8.34,5.59,8.34,10.76c0,3.46-1.58,6.55-4.06,8.59c4.03,1.67,6.86,5.64,6.86,10.27
		c0,4.36-2.52,8.13-6.17,9.95c4.35,1.51,7.46,5.64,7.46,10.5c0,2.86-1.08,5.46-2.85,7.43c4.17,2.71,6.93,7.4,6.93,12.75
		c0,8.39-6.81,15.2-15.21,15.2c-3.35,0-6.38-1.17-8.89-3l0.45,0.44c0,0-1.42,6.75-0.82,13.95
		C531.52,349.28,552.86,352.65,573.86,357.03z M186.38,295.25l18.66,12.45l-4.4-21.94L186.38,295.25z M178.86,300.25l-24.6,16.37
		l24.6,15.19l24.55-15.19L178.86,300.25z M152.76,307.6l18.58-12.36l-14.2-9.48L152.76,307.6z M154,347.18l16.93-10.47l-21.36-13.19
		l-4.61,22.97C147.98,346.75,150.98,346.88,154,347.18z M197.63,353.2l-18.78-11.6l-11.62,7.19
		C177.35,350.01,187.48,351.48,197.63,353.2z M214.26,353.67l-6.06-30.22l-21.42,13.25L214.26,353.67z M429.36,246.32
		c-0.42-0.32-0.94,0.25-0.58,0.64l21.9,23.35h10.31L429.36,246.32z M443.71,294.45h-22.98v18.91h22.98V294.45z M411.8,246.32
		c-0.42-0.32-0.94,0.25-0.58,0.64l21.9,23.35h10.31L411.8,246.32z M394.24,246.32c-0.42-0.32-0.94,0.25-0.58,0.64l21.9,23.35h10.31
		L394.24,246.32z M376.67,246.32c-0.42-0.32-0.94,0.25-0.58,0.64l21.9,23.35h10.31L376.67,246.32z M390.77,346.99v-74.37
		l-29.29-25.1l-36.22-15.97l-36.22,15.97l-29.29,25.1v94.29c1.72,0.47,3.43,0.93,5.15,1.41h12.49c1.89-0.53,3.78-1.04,5.67-1.55
		c1-0.27,2.01-0.56,3.01-0.83l39.2-26.13l19.93,13.29c3.09-0.52,6.18-1.14,9.26-1.61l-23.36-15.57l36.37-24.25v38.06
		C375.24,348.71,383.01,347.73,390.77,346.99z M316.83,404.01c-44.28,13.6-87.91,32.67-129.69,56.99
		c13.29,3.87,27.01,7.09,41.11,9.59c32.15-18.18,65.48-33.18,99.43-44.85c69.17-23.82,140.8-34.08,211.25-31.19
		c5.09-4.47,9.97-9.08,14.6-13.83C475.89,372.51,395.42,379.8,316.83,404.01z M269.73,475.81c10.19,0.75,20.51,1.15,30.96,1.15
		c8.97,0,17.82-0.35,26.6-0.9c52.58-24.98,108.61-41.42,165.8-48.66c10.11-5.91,19.78-12.22,28.84-19
		c-62.45,1.63-124.88,13.77-184.68,36.5C314.27,453.63,291.73,464.01,269.73,475.81z M120.57,221.55c0-4.05,3.28-7.33,7.33-7.33
		s7.33,3.28,7.33,7.33s-3.28,7.33-7.33,7.33S120.57,225.6,120.57,221.55z"/>
</g>
</svg>
